<svg xmlns="http://www.w3.org/2000/svg" viewBox="0 0 512 512" role="img" aria-label="Hub checklist app icon">
  <rect width="512" height="512" rx="112" fill="#ffe044"/>
  <rect x="72" y="88" width="368" height="336" rx="54" fill="#111827"/>
  <rect x="100" y="116" width="312" height="280" rx="36" fill="#ffffff"/>
  <path d="M150 192h212M150 246h118M150 300h92" fill="none" stroke="#111827" stroke-width="24" stroke-linecap="round"/>
  <path d="M334 254l-54 60-30-28" fill="none" stroke="#067647" stroke-width="28" stroke-linecap="round" stroke-linejoin="round"/>
  <rect x="136" y="132" width="240" height="38" rx="12" fill="#ffe044"/>
  <path d="M156 138v26M180 138v26M214 138v26M238 138v26M268 138v26M306 138v26M330 138v26M356 138v26" stroke="#111827" stroke-width="10" stroke-linecap="round"/>
  <path d="M104 104h64M104 104v64M408 104h-64M408 104v64M104 408h64M104 408v-64M408 408h-64M408 408v-64" fill="none" stroke="#111827" stroke-width="24" stroke-linecap="round"/>
</svg>
